<?xml version="1.0" standalone="no"?>
<!DOCTYPE svg PUBLIC "-//W3C//DTD SVG 20010904//EN"
 "http://www.w3.org/TR/2001/REC-SVG-20010904/DTD/svg10.dtd">
<svg version="1.0" xmlns="http://www.w3.org/2000/svg"
 width="747.000000pt" height="1024.000000pt" viewBox="0 0 747.000000 1024.000000"
 preserveAspectRatio="xMidYMid meet">

<g transform="translate(0.000000,1024.000000) scale(0.100000,-0.100000)"
fill="#000000" stroke="none">
<path d="M5760 8260 c-12 -8 -9 -10 13 -10 16 0 26 4 22 10 -8 12 -16 12 -35
0z"/>
<path d="M5835 8260 c-3 -5 -1 -10 4 -10 6 0 11 5 11 10 0 6 -2 10 -4 10 -3 0
-8 -4 -11 -10z"/>
<path d="M5885 8249 c4 -6 13 -8 21 -5 18 7 18 -2 0 -20 -12 -12 -23 -12 -66
-2 -43 10 -53 9 -66 -4 -14 -14 -11 -17 40 -33 31 -10 61 -24 67 -31 6 -8 17
-14 24 -14 8 0 15 -3 17 -8 2 -4 23 -15 48 -25 44 -17 45 -17 62 3 14 17 15
25 6 40 -7 10 -21 21 -31 24 -10 2 -16 9 -12 15 3 6 -1 11 -9 11 -9 0 -16 9
-16 20 0 11 -4 20 -10 20 -5 0 -10 -4 -10 -10 0 -5 -5 -10 -12 -10 -6 0 -8 3
-5 7 4 3 2 12 -4 20 -14 16 -53 18 -44 2z"/>
<path d="M5690 8226 c0 -9 30 -14 35 -6 4 6 -3 10 -14 10 -12 0 -21 -2 -21 -4z"/>
<path d="M4010 8185 c0 -7 8 -16 18 -18 9 -2 -3 -2 -27 0 -29 3 -41 1 -36 -6
3 -6 -1 -11 -9 -11 -9 0 -21 -9 -28 -20 -7 -11 -18 -20 -24 -20 -6 0 -16 -12
-23 -27 -17 -36 1 -77 42 -96 91 -43 120 -50 222 -51 58 0 105 -4 105 -9 0 -4
10 -5 23 -2 12 3 31 6 42 6 113 -2 153 2 215 26 66 24 106 59 92 79 -12 16
-73 44 -97 44 -13 0 -27 5 -30 10 -3 6 -18 10 -33 10 -22 0 -24 -2 -12 -10 11
-8 7 -9 -15 -4 -16 4 -34 11 -40 17 -7 7 -7 8 0 4 6 -3 17 -2 24 2 8 5 -4 13
-33 21 -25 7 -46 17 -46 21 0 5 -4 9 -10 9 -5 0 -9 -5 -7 -12 1 -6 -7 -13 -18
-15 -16 -3 -17 -2 -5 6 8 5 12 11 10 13 -5 4 -80 26 -120 35 -25 6 -25 6 4
-22 25 -23 27 -29 14 -36 -17 -9 -41 -2 -88 27 l-25 16 26 -6 c18 -4 29 -1 32
8 4 9 -3 13 -21 13 -15 0 -48 3 -74 6 -37 4 -48 3 -48 -8z m365 -105 c3 -5 1
-10 -4 -10 -6 0 -11 5 -11 10 0 6 2 10 4 10 3 0 8 -4 11 -10z"/>
<path d="M2234 8156 c-3 -9 -14 -16 -23 -16 -32 -1 -70 -52 -85 -114 -6 -23
-9 -27 -17 -15 -7 12 -10 12 -18 0 -6 -9 -11 -10 -15 -2 -9 15 -49 14 -64 -1
-9 -9 -12 -8 -12 5 0 9 -7 17 -15 17 -8 0 -15 7 -15 15 0 9 -9 15 -25 15 -14
0 -25 -4 -25 -9 0 -16 -54 -20 -71 -5 -19 17 -30 18 -24 2 7 -20 -70 -69 -84
-55 -9 9 -17 8 -32 -1 -16 -11 -23 -10 -36 3 -9 10 -25 14 -37 11 -12 -3 -25
-6 -31 -7 -5 -1 8 -5 30 -8 38 -6 39 -7 18 -19 -17 -9 -28 -10 -43 -2 -15 8
-27 7 -50 -5 -17 -9 -49 -17 -71 -19 -42 -4 -73 -27 -98 -74 -7 -13 -16 -20
-21 -17 -5 3 -12 1 -15 -5 -4 -6 -15 -10 -24 -8 -10 2 -32 -12 -51 -30 -21
-21 -40 -32 -55 -30 -15 2 -34 -11 -65 -45 -24 -26 -48 -47 -54 -47 -6 0 -17
-9 -24 -20 -7 -11 -18 -20 -26 -20 -21 0 -67 -40 -60 -52 4 -6 3 -8 -3 -5 -20
12 -156 -157 -183 -227 -6 -16 -13 -26 -17 -23 -3 4 -13 -7 -22 -23 -73 -136
-91 -173 -109 -228 -12 -34 -22 -70 -22 -80 0 -9 -7 -26 -15 -36 -8 -10 -22
-42 -30 -70 -9 -28 -21 -61 -27 -73 -6 -13 -8 -26 -5 -30 4 -3 3 -11 -1 -17
-5 -6 -17 -40 -27 -76 -23 -82 -38 -120 -48 -120 -4 0 -4 -7 1 -16 9 -16 -6
-64 -20 -64 -3 0 -9 -13 -13 -30 -4 -16 -12 -33 -18 -37 -7 -5 -18 -20 -26
-35 -8 -15 -18 -25 -23 -22 -4 3 -8 -2 -8 -10 0 -10 6 -13 15 -10 8 4 15 4 15
2 0 -13 -40 -79 -63 -103 -14 -16 -24 -32 -21 -37 3 -4 2 -18 -1 -29 -6 -17
-9 -19 -16 -8 -7 9 -8 1 -3 -23 7 -43 -5 -73 -17 -42 -6 14 -8 11 -8 -15 -1
-33 -2 -34 -16 -15 -14 18 -14 18 -15 -8 0 -28 17 -33 48 -15 19 13 15 -12
-15 -75 -14 -31 -30 -55 -34 -52 -12 7 -22 -41 -14 -65 4 -15 2 -21 -9 -21 -9
0 -18 -11 -21 -25 -3 -14 -7 -36 -10 -50 -3 -14 -1 -25 5 -25 5 0 10 5 10 11
0 5 5 7 11 3 8 -5 6 -10 -5 -16 -11 -6 -16 -24 -17 -56 0 -26 -3 -41 -6 -34
-2 6 -11 12 -20 12 -8 0 -13 -6 -10 -12 2 -7 -2 -31 -10 -53 -9 -26 -10 -41
-3 -43 5 -2 10 -11 10 -19 0 -12 -3 -13 -14 -4 -10 8 -16 9 -21 1 -10 -16 4
-30 23 -23 15 6 15 5 -1 -12 -10 -10 -16 -26 -14 -36 3 -10 -2 -24 -10 -30
-11 -10 -11 -14 -1 -21 10 -7 10 -11 -3 -21 -8 -6 -18 -20 -22 -29 -3 -10 -10
-18 -15 -18 -4 0 -8 -16 -8 -35 0 -19 4 -35 8 -35 4 0 7 3 7 8 -4 24 3 42 16
42 11 0 14 7 10 28 -3 15 -2 20 1 12 4 -8 12 -18 17 -22 7 -4 4 -16 -7 -33
-10 -15 -15 -33 -12 -41 3 -8 1 -14 -4 -14 -6 0 -10 -20 -10 -45 0 -25 -4 -45
-10 -45 -5 0 -10 -13 -10 -29 0 -16 -5 -31 -11 -33 -7 -2 -4 -17 10 -41 20
-36 20 -37 1 -47 -22 -12 -28 -74 -9 -86 6 -3 8 -16 5 -28 -3 -13 1 -31 9 -42
10 -13 14 -15 15 -5 0 8 2 12 5 9 8 -8 -5 -58 -15 -58 -5 0 -11 10 -13 23 -4
19 -4 19 -6 -5 0 -15 3 -38 8 -52 7 -17 7 -26 -1 -28 -7 -3 -8 -15 -4 -33 5
-18 10 -24 15 -17 4 8 11 5 19 -8 13 -21 8 -24 -30 -21 -17 2 -17 1 0 -31 9
-18 20 -35 23 -38 4 -3 9 -15 13 -27 6 -17 3 -23 -8 -23 -25 0 -19 -19 9 -30
24 -9 37 -50 15 -50 -5 0 -10 -13 -10 -30 0 -16 4 -30 10 -30 5 0 7 -13 4 -30
-5 -25 -3 -30 12 -31 11 0 14 -3 7 -6 -15 -6 -17 -49 -3 -58 13 -8 13 -35 1
-35 -5 0 -18 26 -29 58 -10 31 -23 57 -28 56 -5 0 -28 -27 -51 -60 l-42 -59
-1 -432 c0 -426 0 -433 20 -433 24 0 26 13 5 30 -12 10 -10 15 11 33 19 17 27
35 31 72 3 27 9 58 14 67 5 10 17 68 25 130 9 62 22 128 30 147 8 18 14 42 14
53 0 11 11 44 25 74 14 30 25 63 25 74 0 27 27 25 35 -2 10 -39 48 -118 56
-118 16 0 19 -72 5 -127 -21 -82 -32 -223 -17 -223 6 0 11 -17 11 -40 0 -23 7
-76 16 -118 10 -48 14 -104 11 -150 -2 -41 -1 -68 3 -62 11 18 20 -3 15 -31
-3 -13 -10 -26 -16 -28 -5 -1 -14 -14 -19 -27 -11 -28 -50 -33 -70 -9 -7 8
-19 15 -26 15 -8 0 -20 11 -26 25 -6 14 -15 25 -19 25 -5 0 -15 16 -24 36 -12
28 -19 34 -34 29 -16 -5 -22 1 -30 32 -6 21 -11 44 -11 51 0 6 -9 12 -20 12
-17 0 -20 -7 -20 -48 0 -26 5 -53 12 -60 8 -8 8 -15 -3 -28 -11 -13 -11 -18
-1 -21 6 -3 12 -20 12 -38 0 -19 5 -46 12 -59 9 -22 8 -29 -7 -46 -11 -12 -13
-20 -6 -20 7 0 9 -9 5 -25 -4 -15 -1 -32 6 -40 7 -9 8 -15 2 -15 -5 0 -12 -9
-15 -20 -3 -11 -12 -20 -21 -20 -15 0 -16 -131 -16 -1460 l0 -1460 1746 0
c1027 0 1743 4 1740 9 -4 5 -3 18 2 30 5 15 11 18 22 11 12 -7 12 -12 2 -22
-21 -21 -14 -28 28 -28 39 0 40 1 40 34 0 19 5 38 11 42 6 3 8 18 4 33 l-6 26
16 -23 c9 -12 13 -27 10 -32 -8 -13 11 -13 36 0 14 8 18 17 13 35 -5 22 -3 25
21 25 22 0 26 -4 22 -20 -3 -11 -1 -23 5 -26 7 -4 6 -9 -2 -14 -9 -6 -9 -13 1
-31 12 -23 12 -23 20 -4 4 11 8 36 8 56 1 49 24 68 51 44 18 -16 20 -16 20 -2
0 13 9 17 39 17 22 0 43 5 46 10 3 6 19 10 35 10 16 0 41 6 57 14 15 8 47 22
71 32 23 9 42 21 42 26 0 4 7 8 15 8 8 0 28 12 45 27 17 16 49 44 71 63 44 38
69 78 69 110 0 13 7 20 20 20 11 0 20 7 20 15 0 8 -4 15 -10 15 -5 0 -14 10
-21 21 -9 17 -8 23 2 30 9 5 14 28 15 61 0 29 5 64 11 78 22 52 25 89 9 105
-18 19 -26 19 -26 0 0 -9 -6 -12 -15 -9 -8 4 -15 13 -15 21 0 8 -6 13 -13 10
-6 -2 -11 -10 -9 -16 3 -16 -67 -3 -90 16 -15 13 -18 12 -28 -7 -9 -18 -14
-19 -27 -9 -9 8 -13 24 -11 41 3 15 1 28 -4 28 -4 0 -8 6 -8 14 0 8 -7 16 -15
20 -8 3 -15 15 -15 26 0 18 3 19 21 10 31 -17 51 -6 40 22 -5 13 -15 22 -22
20 -22 -5 -30 22 -24 83 9 86 23 125 45 125 10 0 20 -6 23 -12 2 -7 2 12 0 42
-3 41 -2 51 6 40 8 -11 11 -11 11 -2 0 7 -7 15 -15 18 -22 9 -18 24 5 24 13 0
22 9 26 25 7 26 38 35 47 13 4 -8 6 -7 6 4 1 9 15 21 31 27 17 5 30 14 30 20
0 5 10 13 22 17 33 10 98 65 98 82 0 8 11 23 25 34 39 30 56 72 49 115 -6 38
-6 38 -50 34 -27 -2 -44 1 -44 8 0 13 -36 15 -44 2 -4 -5 0 -12 6 -14 7 -3 1
-6 -14 -6 -21 -1 -28 4 -28 18 0 10 6 21 14 24 8 3 15 27 18 61 5 65 14 78 34
52 16 -23 17 -21 15 64 -1 50 1 61 9 48 22 -36 37 -19 54 62 15 66 21 80 37
80 19 0 25 21 21 82 -1 20 5 32 23 44 28 18 33 34 10 34 -21 0 -19 12 6 33 15
13 19 25 15 43 -4 13 -1 34 5 46 7 13 12 37 11 56 -1 26 4 35 24 44 17 8 21
14 12 19 -10 6 -10 17 0 54 7 25 12 60 12 78 0 24 3 28 10 17 14 -22 12 15 -3
60 -7 19 -12 85 -12 145 l0 110 33 14 c18 8 31 20 29 25 -2 6 -10 36 -17 66
-18 84 -37 148 -64 225 -14 39 -26 92 -26 118 0 43 4 53 46 98 28 29 73 62
111 81 58 29 67 30 103 19 62 -18 80 -50 80 -140 0 -42 -5 -92 -10 -111 -9
-31 -8 -37 13 -55 13 -11 32 -25 42 -30 13 -8 17 -23 17 -60 -2 -78 1 -83 56
-78 67 7 116 -8 120 -35 4 -24 7 -24 93 -22 54 1 57 0 67 -27 10 -27 11 -27
17 -6 5 16 19 26 44 32 20 5 56 14 81 21 25 6 70 16 100 21 30 5 96 17 145 25
221 39 453 113 595 192 61 34 159 98 170 111 3 3 21 18 40 33 59 44 97 82 94
93 -2 6 5 16 17 23 17 11 20 11 13 0 -6 -10 -4 -10 9 1 9 7 14 18 10 24 -3 5
-1 7 4 4 6 -4 16 0 23 8 9 10 9 15 1 15 -20 0 -12 17 29 59 22 22 40 46 40 51
0 6 5 10 10 10 6 0 10 5 10 11 0 8 -5 7 -15 -1 -22 -18 -26 -9 -14 33 12 43
15 44 40 16 18 -20 18 -20 28 0 9 16 8 22 -4 29 -13 7 -12 10 10 22 14 7 25
20 25 28 0 11 -3 12 -13 3 -8 -6 -16 -8 -20 -5 -9 9 4 35 14 28 5 -3 9 16 9
43 0 33 -3 44 -10 33 -5 -8 -12 -11 -16 -7 -4 4 -2 13 4 19 15 15 16 42 2 33
-5 -3 -10 3 -10 14 0 11 -5 23 -12 27 -6 4 -8 3 -4 -4 3 -6 2 -13 -4 -17 -5
-3 -10 1 -10 9 0 18 36 40 50 31 6 -4 9 13 9 42 -1 31 -3 38 -6 20 -4 -26 -8
-28 -31 -22 -31 8 -38 13 -29 21 4 4 13 1 22 -6 12 -10 15 -10 15 3 0 9 -10
17 -22 19 -13 2 -25 13 -30 28 -6 20 -7 17 -5 -13 2 -29 0 -36 -11 -32 -7 3
-21 5 -30 5 -16 1 -15 2 1 14 21 16 22 42 1 50 -8 3 -13 10 -10 15 5 8 -15 21
-31 21 -3 0 -2 -15 1 -34 7 -34 -7 -58 -18 -34 -3 7 -3 3 0 -9 9 -38 -14 -26
-27 14 -9 28 -9 38 0 41 6 2 11 8 11 14 0 6 -6 8 -14 5 -8 -3 -17 -3 -21 1 -4
4 -12 7 -18 7 -7 0 -13 12 -15 28 -4 32 -14 34 -33 7 -14 -19 -14 -19 -53 0
-21 11 -42 17 -47 15 -4 -3 -10 -1 -14 5 -3 5 -15 10 -26 10 -18 0 -24 19 -20
56 1 6 -5 17 -13 23 -12 10 -17 8 -25 -8 -7 -12 -17 -18 -26 -15 -8 4 -13 10
-10 14 7 11 -19 20 -42 14 -13 -4 -28 4 -44 20 -27 29 -49 34 -49 11 0 -14
-32 -16 -46 -3 -3 4 -12 4 -20 1 -10 -4 -14 4 -14 30 0 20 -4 39 -10 42 -5 3
-10 -3 -10 -14 0 -26 -9 -27 -26 -3 -8 10 -13 12 -14 5 0 -20 -20 -15 -21 5 0
10 -3 12 -6 5 -7 -19 -33 -16 -33 3 0 10 -6 14 -14 11 -7 -3 -19 0 -25 6 -9 9
-13 6 -17 -10 -9 -33 -48 -25 -52 10 -4 29 -12 33 -30 15 -9 -9 -24 -8 -65 1
-29 6 -69 9 -89 6 -19 -3 -54 -2 -77 4 -47 10 -91 4 -69 -11 8 -5 -4 -7 -32
-4 -26 3 -47 1 -51 -5 -4 -8 -17 -6 -40 4 -43 20 -90 17 -107 -6 -12 -15 -15
-16 -28 -2 -11 11 -28 13 -62 9 -26 -3 -78 -7 -117 -9 -38 -1 -70 -3 -70 -4 0
-1 -40 -3 -90 -6 -116 -6 -293 -22 -325 -30 -14 -3 -63 -8 -110 -11 -47 -3
-88 -8 -91 -10 -4 -2 -28 -6 -55 -9 -147 -15 -703 -121 -718 -136 -6 -5 -20
-9 -33 -9 -13 0 -56 -9 -96 -21 -39 -11 -105 -30 -144 -41 -40 -11 -73 -24
-73 -29 0 -5 -19 -9 -42 -9 -24 -1 -61 -7 -83 -15 -22 -8 -48 -15 -58 -15 -9
0 -25 -4 -35 -10 -9 -5 -42 -13 -72 -19 -51 -9 -181 -37 -275 -60 -22 -5 -60
-13 -85 -16 -24 -4 -52 -11 -62 -16 -9 -5 -35 -9 -57 -9 -22 0 -51 -4 -66 -10
-35 -13 -56 -16 -225 -35 -370 -39 -692 -11 -862 76 -10 5 -22 9 -27 9 -11 0
-107 45 -153 73 -20 12 -58 35 -85 51 -62 38 -140 103 -224 189 -37 37 -71 67
-77 67 -6 0 -15 7 -19 15 -9 15 -77 47 -85 40 -9 -9 -139 -17 -175 -10 -45 8
-130 90 -138 133 -3 15 -10 43 -14 62 -14 53 -3 163 20 226 23 62 88 164 104
164 6 0 27 11 47 25 54 37 144 48 207 26 63 -22 77 -34 108 -94 20 -41 25 -64
24 -126 0 -42 -6 -106 -12 -142 -12 -66 -11 -67 16 -103 15 -20 38 -42 51 -49
13 -6 61 -34 106 -62 80 -48 251 -125 333 -150 22 -6 47 -14 55 -17 8 -4 26
-9 40 -11 14 -3 54 -13 90 -22 77 -19 382 -34 479 -23 36 4 91 7 121 7 62 1
197 23 310 52 202 51 233 60 251 70 11 6 41 14 67 19 26 5 70 16 97 24 62 18
377 105 425 117 19 4 71 17 115 27 45 11 90 24 100 29 11 6 58 18 105 27 47 9
103 23 125 31 22 7 90 19 150 26 61 6 115 16 121 20 6 5 70 11 143 13 72 3
136 8 140 10 5 3 66 10 137 16 155 12 174 16 174 41 0 23 4 23 36 3 21 -14 29
-15 48 -5 12 7 49 13 82 14 52 2 59 4 59 22 0 11 -4 26 -9 33 -12 17 -5 22 23
15 17 -4 20 -8 9 -15 -10 -7 -10 -11 0 -15 6 -2 12 -12 12 -20 0 -11 6 -14 23
-9 12 3 25 6 28 6 4 0 9 10 13 23 5 19 8 20 17 7 9 -13 10 -13 6 0 -2 8 -12
15 -23 15 -16 0 -19 8 -20 48 -1 54 -11 70 -26 43 -6 -11 -13 -14 -17 -8 -4 6
-23 12 -44 14 -20 1 -37 6 -37 10 0 4 -18 8 -39 8 -31 0 -41 4 -46 20 -3 11
-10 20 -14 20 -4 0 -7 12 -6 27 0 34 -30 44 -40 13 -6 -19 -9 -18 -56 21 -27
22 -49 47 -49 54 0 7 -12 16 -27 20 -32 8 -63 33 -63 50 0 7 -7 15 -15 19 -15
5 -21 36 -7 36 4 0 18 -12 31 -26 18 -18 27 -22 35 -14 8 8 6 15 -8 26 -11 8
-14 14 -7 14 9 0 8 5 -3 16 -11 10 -14 24 -10 40 10 38 -14 73 -53 80 -18 3
-33 10 -33 14 0 4 -12 15 -26 25 -22 14 -28 15 -35 4 -6 -11 -13 -11 -26 -3
-20 13 -66 95 -57 103 3 3 10 -2 15 -12 6 -9 23 -24 39 -32 57 -30 67 -13 20
35 -16 17 -30 35 -30 39 0 5 -11 12 -25 15 -18 5 -25 13 -25 31 0 14 -4 25
-10 25 -5 0 -10 -7 -10 -15 0 -8 -4 -15 -10 -15 -5 0 -10 9 -10 20 0 10 -9 24
-19 30 -11 5 -19 18 -19 28 0 9 -3 25 -7 36 -7 16 -5 17 16 11 13 -4 30 -12
37 -17 8 -7 12 -7 12 1 0 6 -15 17 -34 25 -18 8 -37 19 -40 25 -4 6 -18 11
-32 11 -17 0 -27 8 -34 25 -5 14 -21 30 -35 35 -28 11 -31 21 -13 49 6 10 8
27 4 37 -7 17 -9 16 -22 -8 -9 -18 -20 -25 -29 -21 -12 4 -13 8 -4 19 9 11 8
19 -6 34 -10 11 -14 20 -9 20 5 0 1 5 -9 11 -9 6 -15 15 -11 20 3 6 -2 16 -12
24 -17 12 -16 14 16 22 52 14 48 45 -7 57 -45 9 -58 32 -21 38 12 2 23 10 26
18 3 12 2 12 -8 3 -10 -9 -18 -6 -37 13 -13 13 -32 24 -43 24 -10 0 -22 5 -25
10 -3 6 5 10 19 10 36 0 43 20 15 41 -23 19 -24 20 -5 34 19 14 18 15 -11 25
-16 6 -36 22 -43 35 -16 30 -36 32 -43 5 -3 -11 -11 -20 -17 -20 -7 0 -10 7
-6 15 3 9 0 15 -9 15 -8 0 -15 5 -15 10 0 6 -12 22 -27 36 -20 19 -24 27 -15
36 20 20 13 35 -17 41 -18 4 -32 14 -36 27 -4 14 -12 19 -21 16 -9 -4 -12 -2
-8 5 4 7 23 8 50 4 37 -5 43 -4 38 9 -3 9 -14 16 -23 16 -10 0 -26 6 -36 14
-11 8 -25 12 -32 9 -7 -3 -13 2 -13 12 0 9 5 13 10 10 6 -4 10 5 10 19 0 14
-4 26 -10 26 -5 0 -10 -4 -10 -10 0 -5 -5 -10 -11 -10 -6 0 -8 8 -4 19 3 11 0
21 -9 24 -10 4 -16 -1 -18 -16 -5 -33 -63 -37 -73 -5 -4 13 -7 28 -6 35 1 6
-8 18 -19 26 -18 13 -20 18 -9 35 7 12 19 18 28 14 11 -4 13 -1 8 12 -4 10 -7
27 -7 37 0 11 -4 18 -8 15 -5 -3 -16 4 -25 14 -15 18 -15 19 4 25 21 7 23 13
9 35 -8 13 -10 12 -10 -2 0 -43 -28 -8 -55 67 -7 19 -7 19 -16 -2 -9 -24 -24
-30 -34 -13 -4 6 -10 8 -14 5 -5 -2 -6 7 -3 20 3 19 -1 27 -19 34 -13 5 -18
10 -11 10 7 1 4 9 -9 22 -14 14 -19 28 -15 44 4 17 0 28 -14 38 -11 7 -23 28
-26 45 -4 17 -9 31 -13 30 -3 0 -16 0 -29 1 -19 1 -22 5 -17 21 7 22 -13 28
-32 9 -8 -8 -15 -6 -24 9 -7 11 -19 18 -26 15 -8 -3 -15 6 -19 26 -4 17 -10
28 -14 26 -5 -3 -6 4 -3 15 3 11 9 20 14 20 5 0 9 7 9 15 0 8 -4 15 -10 15
-14 0 -12 27 3 33 10 4 10 6 0 6 -7 1 -13 6 -13 12 0 12 -25 39 -36 39 -3 0
-1 -7 6 -15 17 -21 5 -51 -15 -35 -8 6 -19 9 -24 5 -7 -3 -8 0 -5 9 4 10 -1
18 -10 22 -11 4 -14 13 -11 25 6 17 2 19 -27 17 -18 -2 -36 -7 -39 -12 -4 -5
-17 14 -30 43 -18 38 -29 51 -44 49 -11 0 -36 0 -55 1 -31 1 -33 3 -17 15 24
18 22 23 -12 31 -19 4 -31 14 -35 30 -3 13 -16 27 -29 30 -30 10 -68 46 -60
58 4 6 -2 8 -15 5 -16 -4 -19 -2 -15 11 4 13 3 13 -7 -1 -13 -22 -38 -23 -66
-4 -11 8 -31 16 -44 18 -28 3 -29 30 -4 59 8 8 14 23 14 32 0 9 13 24 29 33
35 21 47 62 24 84 -9 8 -13 9 -9 3 10 -18 2 -16 -36 7 -32 19 -32 20 -8 20 20
1 16 5 -24 26 -59 28 -56 28 -56 9 0 -8 -7 -15 -16 -15 -10 0 -14 6 -10 15 4
12 -2 15 -27 13 -18 -1 -44 2 -59 6 -21 6 -29 4 -34 -8z m186 -36 c0 -5 -4
-10 -10 -10 -5 0 -10 5 -10 10 0 6 5 10 10 10 6 0 10 -4 10 -10z m-270 -555
c157 -50 281 -127 402 -247 374 -373 452 -977 193 -1488 -66 -130 -207 -310
-303 -385 -130 -103 -267 -184 -357 -210 -33 -9 -68 -21 -77 -26 -9 -4 -70
-16 -135 -25 -289 -42 -548 37 -763 234 -190 174 -332 419 -386 669 -25 117
-29 312 -9 438 44 280 154 512 330 694 184 191 363 296 615 362 129 33 358 26
490 -16z m1017 -281 c-3 -3 -12 -4 -19 -1 -8 3 -5 6 6 6 11 1 17 -2 13 -5z
m62 -129 c1 -5 -6 -2 -15 7 -10 9 -13 21 -8 29 5 9 9 8 15 -7 4 -10 8 -23 8
-29z m1095 -1671 c10 -27 7 -35 -11 -25 -10 5 -27 12 -38 16 -16 5 -17 8 -5
15 23 15 47 12 54 -6z m120 -35 c-3 -5 -10 -7 -15 -3 -5 3 -7 10 -3 15 3 5 10
7 15 3 5 -3 7 -10 3 -15z m6 -49 c0 -5 -4 -10 -10 -10 -5 0 -10 5 -10 10 0 6
5 10 10 10 6 0 10 -4 10 -10z m-360 -157 c45 -12 57 -19 50 -29 -12 -13 -62
-26 -54 -13 7 11 1 11 -30 -1 -20 -7 -26 -6 -26 4 0 7 -7 19 -15 26 -15 12
-12 30 6 30 5 0 36 -7 69 -17z m-3973 -35 c-3 -7 -5 -2 -5 12 0 14 2 19 5 13
2 -7 2 -19 0 -25z m4374 12 c29 -16 23 -27 -11 -22 -17 2 -30 10 -30 18 0 17
14 18 41 4z m165 -114 c19 -20 20 -53 0 -37 -14 11 -29 51 -19 51 2 0 11 -6
19 -14z m129 -77 c-8 -12 -32 -12 -40 1 -11 18 5 31 26 20 11 -6 17 -15 14
-21z m-4695 -49 c0 -11 -4 -20 -9 -20 -5 0 -7 9 -4 20 3 11 7 20 9 20 2 0 4
-9 4 -20z m5753 -458 c-3 -12 -9 -19 -14 -16 -5 3 -3 14 3 24 15 24 19 21 11
-8z m347 -117 c0 -8 -2 -15 -4 -15 -2 0 -6 7 -10 15 -3 8 -1 15 4 15 6 0 10
-7 10 -15z m162 -55 c-2 -16 -6 -30 -8 -30 -2 0 -4 14 -4 30 0 17 4 30 8 30 5
0 7 -13 4 -30z m-6179 -132 c9 -31 2 -33 -11 -3 -6 14 -8 25 -3 25 5 0 11 -10
14 -22z m6414 -20 c-3 -8 -6 -5 -6 6 -1 11 2 17 5 13 3 -3 4 -12 1 -19z m208
-168 c3 -5 1 -10 -4 -10 -6 0 -11 5 -11 10 0 6 2 10 4 10 3 0 8 -4 11 -10z
m-2373 -830 c-8 -120 -82 -308 -149 -378 -34 -36 -46 -42 -80 -42 -28 0 -45 6
-60 23 -46 50 -76 147 -77 246 l-1 66 60 30 c125 62 250 106 290 102 17 -2 20
-8 17 -47z m-4338 -212 c3 -16 2 -28 -3 -28 -13 0 -21 27 -14 45 7 19 8 18 17
-17z m3816 22 c0 -14 -33 -110 -49 -145 -25 -53 -103 -139 -140 -155 -62 -25
-117 35 -142 155 -12 59 -7 121 10 111 4 -3 20 2 35 10 16 7 40 14 55 15 14 0
35 4 46 9 21 8 185 9 185 0z m-555 -100 c11 -5 16 -9 12 -9 -5 -1 -5 -6 -1
-12 4 -8 9 -7 15 2 4 7 10 11 13 8 12 -11 -44 -108 -88 -151 -54 -55 -102 -70
-140 -45 -43 28 -74 170 -43 195 6 5 21 12 32 15 34 8 179 6 200 -3z m-405
-20 c20 -32 -63 -121 -145 -155 -31 -13 -43 -14 -67 -4 -33 14 -73 77 -82 131
l-7 37 73 4 c135 7 218 3 228 -13z m-2860 0 c0 -5 -4 -10 -10 -10 -5 0 -10 5
-10 10 0 6 5 10 10 10 6 0 10 -4 10 -10z m360 -260 c0 -5 -4 -10 -8 -10 -11 0
-38 -61 -53 -120 -6 -25 -15 -48 -20 -51 -5 -3 -17 -29 -28 -58 -10 -29 -23
-57 -30 -64 -14 -14 -15 -61 -1 -52 6 3 10 -2 10 -12 -1 -21 -24 -55 -33 -47
-6 7 -21 -43 -26 -88 -1 -4 -8 -14 -17 -22 -16 -16 -10 -41 7 -31 18 12 8 -14
-17 -44 -14 -17 -23 -31 -19 -31 4 0 3 -6 -3 -12 -5 -7 -13 -28 -17 -45 -3
-18 -11 -33 -16 -33 -5 0 -9 -10 -9 -22 1 -21 2 -22 14 -5 7 9 16 17 20 17 14
0 4 -39 -19 -70 -14 -19 -25 -40 -25 -47 0 -8 -7 -16 -16 -20 -12 -5 -15 -14
-10 -43 5 -33 2 -40 -34 -75 -36 -35 -40 -37 -40 -17 0 12 6 41 14 64 8 24 24
77 36 118 42 148 63 217 101 334 48 146 80 260 85 305 2 18 10 41 18 50 8 9
16 27 18 41 5 38 49 92 70 87 10 -3 18 -1 18 4 0 5 7 9 15 9 8 0 15 -4 15 -10z
m3620 -1464 c0 -29 -19 -44 -30 -25 -9 14 5 49 20 49 6 0 10 -11 10 -24z m9
-80 c9 -10 8 -16 -4 -26 -8 -7 -15 -19 -15 -26 0 -8 -8 -14 -17 -14 -17 -1
-17 -1 0 -14 9 -7 17 -18 17 -24 0 -12 -39 -27 -47 -18 -4 3 -1 6 5 6 16 0 15
27 0 34 -9 3 -6 11 9 24 15 14 19 22 11 30 -14 14 -3 42 15 42 8 0 20 -6 26
-14z m-149 -36 c0 -5 -5 -10 -11 -10 -5 0 -7 5 -4 10 3 6 8 10 11 10 2 0 4 -4
4 -10z m146 -170 c8 0 14 -10 14 -24 l0 -24 -30 30 c-16 16 -30 37 -29 46 0
14 3 12 16 -5 8 -13 22 -23 29 -23z m251 -282 c-3 -7 -5 -2 -5 12 0 14 2 19 5
13 2 -7 2 -19 0 -25z"/>
<path d="M1802 6815 c-91 -31 -134 -59 -195 -124 -96 -102 -145 -272 -118
-403 32 -155 129 -277 277 -345 48 -22 77 -28 155 -31 137 -6 236 30 335 121
114 104 168 260 144 414 -45 283 -330 459 -598 368z m490 -216 c11 -6 26 -27
35 -46 45 -110 -72 -202 -158 -125 -40 35 -45 96 -13 139 37 50 83 60 136 32z
m-682 -344 c0 -8 -4 -15 -10 -15 -5 0 -10 7 -10 15 0 8 5 15 10 15 6 0 10 -7
10 -15z m62 -79 c6 -14 28 -32 49 -40 22 -9 39 -20 39 -26 0 -5 8 -10 18 -10
10 0 29 -8 42 -17 37 -26 220 -22 254 6 14 12 19 11 36 -4 28 -25 25 -48 -12
-84 -34 -34 -49 -37 -96 -20 -25 8 -35 7 -56 -6 -24 -16 -27 -16 -59 4 -23 14
-44 19 -63 15 -21 -4 -38 1 -63 20 -19 14 -43 26 -52 26 -10 0 -29 22 -48 54
-16 30 -35 57 -41 61 -5 3 -10 15 -10 26 0 30 47 26 62 -5z"/>
<path d="M265 2250 c-3 -5 -1 -10 4 -10 6 0 11 5 11 10 0 6 -2 10 -4 10 -3 0
-8 -4 -11 -10z"/>
<path d="M4165 8150 c3 -5 10 -10 16 -10 5 0 9 5 9 10 0 6 -7 10 -16 10 -8 0
-12 -4 -9 -10z"/>
<path d="M5210 7995 c-65 -16 -131 -49 -172 -87 -17 -16 -36 -28 -43 -28 -35
0 -57 -80 -30 -110 46 -51 188 -80 288 -58 110 23 157 75 161 175 0 23 4 45 8
49 9 8 -22 64 -37 65 -5 0 -35 2 -65 3 -30 2 -80 -2 -110 -9z"/>
<path d="M3048 7973 c7 -3 16 -2 19 1 4 3 -2 6 -13 5 -11 0 -14 -3 -6 -6z"/>
<path d="M3130 7946 c0 -8 15 -20 34 -26 19 -6 37 -16 40 -23 3 -9 5 -8 5 1 1
7 -7 16 -16 19 -15 6 -14 8 7 14 23 6 23 7 -7 8 -18 1 -33 6 -33 11 0 6 -7 10
-15 10 -8 0 -15 -6 -15 -14z"/>
<path d="M6097 7926 c-63 -43 -117 -191 -152 -416 -22 -143 -31 -511 -16 -676
15 -171 70 -453 114 -584 8 -25 27 -83 41 -128 15 -46 43 -118 62 -160 20 -43
44 -97 54 -122 43 -108 189 -349 247 -408 7 -7 16 -19 20 -26 5 -7 37 -37 73
-67 88 -74 232 -143 270 -129 3 1 20 3 38 6 24 3 32 0 32 -11 0 -8 8 -15 18
-14 10 0 12 3 4 6 -6 2 -10 9 -7 13 3 5 12 7 19 4 9 -3 17 3 21 15 3 12 11 19
16 16 5 -4 9 4 9 16 0 17 -3 19 -14 10 -11 -9 -14 -6 -14 16 0 16 4 33 9 39 5
6 11 24 13 40 3 16 14 64 25 108 27 100 26 102 -6 80 -72 -47 -180 -94 -217
-94 -45 0 -116 19 -116 32 0 4 -6 8 -12 8 -7 0 -26 11 -43 25 -181 151 -345
424 -446 742 -47 150 -94 339 -109 438 -21 144 -31 414 -20 524 11 103 42 266
60 306 5 11 12 30 15 42 3 13 24 45 45 72 51 65 108 91 211 98 49 4 75 9 67
14 -7 5 -27 9 -45 9 -18 0 -36 6 -40 14 -4 7 -33 19 -63 26 -49 12 -52 14 -30
22 14 5 44 8 67 5 42 -4 132 -42 145 -61 5 -7 8 -7 8 -1 0 10 -30 49 -92 119
-21 24 -30 28 -36 18 -7 -11 -10 -10 -16 3 -3 9 -11 13 -17 9 -6 -3 -15 -1
-19 6 -5 8 -34 13 -75 15 -54 1 -73 -2 -98 -19z"/>
<path d="M6310 7929 c0 -5 5 -7 10 -4 6 3 10 8 10 11 0 2 -4 4 -10 4 -5 0 -10
-5 -10 -11z"/>
<path d="M3080 7906 c0 -9 30 -14 35 -6 4 6 -3 10 -14 10 -12 0 -21 -2 -21 -4z"/>
<path d="M3236 7879 c29 -32 54 -43 54 -24 0 8 -7 15 -15 15 -9 0 -12 6 -9 15
5 11 -1 15 -21 15 -28 0 -28 0 -9 -21z"/>
<path d="M3186 7865 c10 -25 54 -45 54 -25 0 6 -7 10 -16 10 -8 0 -13 4 -10 9
3 5 -1 12 -10 15 -22 9 -24 8 -18 -9z"/>
<path d="M4072 7797 c-7 -8 -26 -20 -41 -27 -23 -9 -30 -19 -34 -48 -5 -48 4
-71 46 -116 20 -20 42 -47 50 -59 23 -35 188 -87 276 -87 38 0 72 4 75 9 4 5
26 19 50 30 48 24 66 54 66 109 0 27 -6 41 -21 50 -11 7 -18 19 -16 26 3 8
-11 19 -36 30 -23 9 -55 24 -72 33 -16 9 -48 20 -70 24 -22 4 -60 13 -85 19
-81 20 -174 24 -188 7z"/>
<path d="M1158 7773 c7 -3 16 -2 19 1 4 3 -2 6 -13 5 -11 0 -14 -3 -6 -6z"/>
<path d="M2800 7720 c0 -5 5 -10 11 -10 5 0 7 5 4 10 -3 6 -8 10 -11 10 -2 0
-4 -4 -4 -10z"/>
<path d="M3070 7430 c0 -5 5 -10 10 -10 6 0 10 5 10 10 0 6 -4 10 -10 10 -5 0
-10 -4 -10 -10z"/>
<path d="M5111 7414 c0 -11 3 -14 6 -6 3 7 2 16 -1 19 -3 4 -6 -2 -5 -13z"/>
<path d="M758 7398 c-19 -19 -24 -38 -10 -38 8 0 36 50 30 55 -2 1 -11 -7 -20
-17z"/>
<path d="M4714 7394 c3 -8 6 -18 6 -20 0 -2 5 -4 10 -4 16 0 11 27 -6 34 -12
5 -15 2 -10 -10z"/>
<path d="M3915 7394 c-115 -26 -165 -61 -165 -115 0 -15 -5 -31 -11 -35 -7 -4
-7 -9 -2 -13 5 -3 20 -28 33 -56 13 -27 29 -55 34 -62 26 -30 35 -42 60 -82
15 -23 33 -44 41 -48 8 -3 15 -9 15 -13 0 -4 16 -31 35 -60 38 -56 43 -81 21
-102 -23 -24 -26 -52 -10 -83 48 -88 59 -102 106 -137 29 -22 46 -27 87 -27
28 1 51 6 51 11 0 6 6 8 14 5 8 -3 16 -2 18 4 4 13 92 -18 113 -41 22 -24 11
-60 -18 -60 -12 0 -40 18 -62 40 -35 34 -65 50 -65 35 0 -16 26 -55 37 -55 7
0 13 -4 13 -10 0 -5 7 -10 15 -10 8 0 15 -5 15 -10 0 -6 12 -9 26 -8 15 2 29
-3 31 -9 3 -7 -2 -13 -11 -13 -9 0 -16 -7 -16 -15 0 -18 0 -18 43 0 35 14 35
14 48 -16 10 -25 10 -32 0 -39 -10 -6 -10 -16 0 -49 13 -44 12 -46 -26 -66 -6
-3 -5 -7 3 -11 6 -3 12 -11 12 -17 1 -16 42 -62 63 -70 19 -7 23 -27 6 -27 -6
0 -8 -7 -5 -17 4 -9 1 -21 -6 -26 -9 -6 -6 -7 9 -4 12 3 24 0 26 -7 2 -6 12
-11 23 -11 28 0 25 -38 -3 -40 -33 -2 -39 -13 -19 -33 14 -12 20 -14 23 -4 9
23 18 12 21 -24 2 -31 0 -35 -12 -25 -8 7 -20 11 -28 10 -12 -2 -25 1 -74 21
-30 12 -48 -2 -39 -31 31 -102 121 -265 177 -323 21 -21 43 -51 49 -65 7 -15
30 -37 51 -50 21 -12 38 -28 38 -36 0 -19 57 -70 79 -70 18 -1 93 -36 102 -48
7 -9 121 -29 160 -29 22 1 28 -5 33 -28 6 -32 19 -36 61 -20 20 8 29 6 45 -10
11 -11 20 -24 20 -30 0 -5 13 -7 28 -4 19 4 32 1 41 -10 8 -9 17 -16 22 -16
14 0 10 50 -3 51 -7 1 -24 2 -38 2 -14 1 -24 7 -23 14 2 7 -11 20 -27 30 -51
30 -38 51 44 73 l50 14 33 -39 c18 -21 33 -44 33 -51 0 -7 6 -15 13 -17 8 -4
8 -6 -2 -6 -8 -1 -22 6 -31 14 -16 14 -17 13 -18 -15 -1 -26 3 -30 21 -29 47
4 67 -1 67 -18 0 -15 14 -10 16 5 0 4 5 16 9 26 6 13 5 21 -3 24 -7 2 -12 10
-12 17 0 8 -8 19 -19 24 -46 25 -27 146 22 139 13 -2 23 3 25 12 2 10 -5 16
-19 17 -12 1 -27 7 -33 14 -8 9 -8 10 2 5 20 -12 45 13 31 30 -9 11 -9 17 0
28 9 11 7 15 -11 20 l-23 6 22 15 c16 11 20 23 18 50 -2 24 1 35 10 35 7 0 18
6 24 14 10 11 7 19 -11 35 -21 21 -22 23 -6 64 13 36 19 42 42 40 29 -2 34 14
10 31 -14 10 -10 14 24 25 39 13 39 14 21 32 -14 14 -17 27 -13 44 3 14 2 25
-4 25 -5 0 -12 20 -14 45 -3 38 0 45 14 45 25 0 22 14 -8 47 -14 15 -21 29
-15 31 6 2 11 14 11 27 0 12 7 26 16 29 21 8 9 24 -29 40 -32 12 -32 13 -9 25
25 14 29 31 6 31 -8 0 -12 5 -9 10 4 6 2 17 -5 25 -15 18 6 31 25 15 10 -8 15
-8 21 1 4 7 -2 19 -15 28 -17 13 -19 19 -9 29 6 6 18 12 25 12 23 0 14 18 -13
24 -21 6 -24 9 -14 21 7 8 19 14 28 13 33 -2 52 2 52 12 0 6 -7 10 -15 10 -8
0 -15 5 -15 11 0 6 -5 7 -12 2 -31 -19 -35 -11 -29 50 2 14 21 7 21 -8 0 -20
26 -19 34 2 4 9 -1 25 -12 37 -15 16 -17 28 -11 50 9 31 -5 61 -23 50 -6 -4
-8 2 -6 12 1 9 -9 30 -24 45 -22 22 -28 37 -28 73 0 24 5 48 11 52 8 4 2 12
-15 21 -14 7 -26 19 -26 25 0 9 -3 9 -11 1 -7 -7 -8 -22 0 -49 6 -23 7 -42 2
-47 -12 -12 -34 2 -28 17 3 7 1 19 -4 27 -7 11 -12 12 -29 2 -28 -18 -37 -17
-108 19 -58 29 -63 33 -57 57 4 14 3 23 -1 19 -10 -11 -34 11 -34 32 0 18 -28
36 -39 25 -3 -3 0 -15 7 -25 7 -11 12 -29 12 -40 0 -11 7 -20 15 -20 8 0 15
-8 15 -18 0 -11 16 -30 36 -44 l36 -26 -29 -6 c-15 -3 -47 -7 -70 -8 -25 -1
-45 -7 -48 -16 -2 -7 -9 -11 -14 -7 -5 3 -13 0 -16 -6 -4 -5 -13 -8 -21 -5 -8
3 -14 1 -14 -4 0 -14 -41 -23 -53 -11 -8 8 -6 11 8 11 19 1 19 1 2 14 -22 17
-7 30 23 21 14 -5 20 -2 20 9 0 9 -8 16 -19 16 -21 0 -61 44 -61 66 0 8 -7 14
-15 14 -19 0 -19 -17 0 -53 16 -31 7 -72 -16 -72 -8 0 -15 -4 -16 -10 -2 -5 3
-10 10 -10 6 0 19 -8 28 -17 8 -9 24 -15 35 -12 10 2 26 0 34 -6 13 -9 13 -11
0 -20 -8 -6 -25 -8 -37 -5 -18 4 -23 1 -23 -16 0 -16 5 -20 19 -16 14 3 21 -2
25 -16 7 -28 -3 -37 -15 -14 -12 21 -59 23 -59 3 0 -8 5 -18 11 -21 7 -5 5
-13 -6 -25 -14 -15 -14 -18 0 -30 12 -10 18 -10 30 0 8 7 15 19 15 27 0 8 5
11 10 8 16 -10 12 -55 -5 -61 -9 -4 -15 -11 -14 -18 1 -6 -3 -24 -10 -41 -7
-16 -10 -39 -7 -50 4 -17 2 -16 -14 5 -11 14 -20 37 -20 53 0 15 -5 27 -11 27
-5 0 -7 -4 -4 -10 3 -6 -1 -7 -9 -4 -9 3 -16 12 -16 19 0 7 -6 16 -12 18 -8 3
-6 6 5 6 29 1 52 81 23 81 -15 0 -27 42 -17 58 3 5 13 12 21 16 8 3 -7 4 -34
1 -27 -3 -51 -7 -54 -9 -9 -9 10 -26 28 -26 18 0 19 -5 13 -47 -3 -27 -7 -50
-10 -52 -2 -3 -19 13 -39 34 -28 31 -35 45 -30 67 4 22 2 28 -12 28 -33 0 -44
-14 -32 -44 13 -34 13 -49 0 -41 -5 3 -10 17 -10 31 0 13 -3 24 -7 24 -5 0 -8
15 -8 33 0 26 4 32 20 29 12 -1 30 6 42 17 11 11 40 23 64 28 28 6 45 14 47
25 3 14 -3 16 -32 11 -32 -5 -37 -3 -46 21 -11 30 -29 35 -31 9 -1 -18 0 -24
8 -54 6 -22 -65 -32 -88 -13 -23 20 -42 18 -31 -3 5 -10 8 -29 5 -43 -2 -14
-4 -33 -4 -42 -1 -29 -16 -30 -74 -4 -57 27 -61 31 -45 56 8 13 11 13 19 1 5
-8 16 -11 25 -8 18 7 22 53 4 59 -7 3 -9 11 -3 24 4 10 9 26 10 34 1 8 13 27
26 42 26 28 49 88 49 127 0 11 5 21 12 21 9 0 9 3 0 12 -7 7 -12 24 -12 39 0
15 -7 32 -15 39 -8 7 -15 20 -15 28 0 18 -48 63 -89 83 -14 7 -37 21 -51 30
-14 9 -52 22 -85 28 -96 16 -208 30 -235 29 -14 -1 -56 1 -95 5 -131 14 -150
15 -170 11z m563 -658 c3 -12 -1 -17 -10 -14 -7 3 -15 13 -16 22 -3 12 1 17
10 14 7 -3 15 -13 16 -22z m40 -17 c9 0 35 -8 57 -18 38 -17 39 -18 18 -29
-12 -7 -30 -9 -40 -5 -24 8 -62 54 -61 73 0 10 2 10 5 -2 2 -10 12 -18 21 -19z
m562 7 c0 -11 -19 -15 -25 -6 -3 5 1 10 9 10 9 0 16 -2 16 -4z m-620 -16 c0
-5 -4 -10 -10 -10 -5 0 -10 5 -10 10 0 6 5 10 10 10 6 0 10 -4 10 -10z m-37
-46 l29 -34 -25 -9 c-14 -6 -27 -18 -30 -28 -4 -17 -4 -17 -12 1 -5 11 -4 26
2 35 8 12 7 22 -3 36 -35 47 0 47 39 -1z m287 17 c0 -11 -5 -23 -11 -27 -7 -4
2 -11 22 -18 26 -9 33 -16 31 -32 -3 -21 21 -39 38 -29 4 3 11 -2 14 -11 4
-10 2 -13 -6 -8 -8 5 -9 -2 -3 -27 4 -19 7 -45 6 -58 -1 -13 4 -30 11 -38 9
-11 9 -16 -2 -23 -10 -6 -8 -9 6 -13 14 -3 15 -5 3 -6 -9 0 -24 8 -34 19 -10
11 -24 20 -32 20 -16 0 -17 14 -1 39 9 15 8 24 -6 45 -9 15 -21 24 -26 21 -14
-8 -24 15 -11 28 6 6 11 20 11 30 0 16 -3 17 -15 7 -26 -22 -43 -5 -43 44 0
43 4 49 41 55 4 0 7 -8 7 -18z m-370 -50 c0 -12 -39 -25 -48 -16 -7 7 17 25
36 25 6 0 12 -4 12 -9z m227 -49 c7 -9 13 -22 13 -28 0 -6 11 -16 25 -22 14
-7 28 -18 31 -26 5 -12 10 -13 24 -3 22 13 25 11 34 -20 7 -22 4 -23 -38 -23
-34 0 -46 -4 -46 -15 0 -8 5 -15 10 -15 13 0 45 -32 53 -53 4 -10 19 -23 34
-29 36 -16 53 -33 53 -52 0 -9 8 -16 20 -16 11 0 20 5 20 10 0 6 18 10 40 10
38 0 55 13 28 22 -7 3 -8 7 -3 10 6 2 21 -1 35 -9 l25 -13 -22 -6 c-13 -4 -23
-10 -23 -15 0 -5 -18 -9 -39 -9 -33 0 -40 -4 -45 -26 -8 -30 -30 -27 -34 4 -3
21 -36 32 -44 15 -6 -14 -84 -51 -121 -58 -37 -7 -37 -7 -37 26 0 45 15 68 32
51 10 -10 10 -17 0 -32 -11 -18 -10 -20 12 -20 32 0 40 49 14 98 -10 20 -18
46 -18 58 0 24 -24 49 -38 40 -5 -3 -18 1 -28 9 -10 8 -27 15 -36 15 -18 0
-21 6 -19 50 0 14 -2 19 -5 13 -10 -23 -26 -14 -22 11 4 19 0 26 -16 29 -19 3
-19 4 6 15 14 6 29 16 33 22 10 16 76 3 92 -18z m78 -2 c3 -5 1 -18 -5 -27
-11 -17 -11 -17 -6 0 3 9 1 17 -4 17 -6 0 -10 5 -10 10 0 13 17 13 25 0z m245
-67 c0 -7 -7 -13 -15 -13 -8 0 -15 -5 -15 -12 0 -9 -3 -9 -11 -1 -7 7 -9 23
-5 37 6 23 9 25 26 14 11 -7 20 -18 20 -25z m135 7 c-3 -5 -10 -10 -16 -10 -5
0 -9 5 -9 10 0 6 7 10 16 10 8 0 12 -4 9 -10z m-133 -42 c-21 -21 -13 -28 28
-28 22 0 40 -4 40 -10 0 -5 -5 -10 -11 -10 -5 0 -7 -5 -4 -10 4 -6 10 -8 15
-5 5 3 11 1 15 -5 3 -5 2 -10 -3 -10 -5 0 -12 -9 -15 -20 -6 -25 -25 -25 -56
0 -18 16 -21 23 -12 34 9 10 8 15 -4 20 -8 3 -15 11 -15 19 0 13 19 37 29 37
3 0 0 -5 -7 -12z m-378 -54 c9 -3 16 -15 16 -25 0 -11 7 -22 15 -25 10 -4 15
-20 15 -49 0 -41 -2 -43 -37 -53 l-38 -10 33 -7 c40 -9 40 -16 1 -49 -28 -24
-32 -25 -46 -10 -9 9 -27 20 -40 25 -12 4 -23 13 -23 18 0 17 19 22 40 11 16
-8 20 -8 20 4 0 8 -5 18 -11 22 -6 4 -9 19 -5 36 4 20 1 30 -9 34 -17 7 -20
34 -4 34 6 0 8 7 5 15 -8 22 37 41 68 29z m201 -11 c-2 -8 4 -13 15 -13 11 0
24 -9 30 -21 14 -25 3 -41 -11 -16 -6 10 -17 16 -27 13 -21 -7 -35 2 -50 30
-10 19 -9 21 19 20 19 -1 28 -5 24 -13z m-125 -17 c0 -24 -17 -28 -23 -6 -3
13 0 20 9 20 8 0 14 -6 14 -14z m225 -74 c-22 -5 -27 1 -19 23 7 17 8 17 21
-1 12 -17 12 -19 -2 -22z m167 -14 c-11 -11 -32 -3 -32 12 0 4 9 6 21 3 13 -4
17 -9 11 -15z m458 -568 c0 -5 -9 -10 -20 -10 -11 0 -20 5 -20 10 0 6 9 10 20
10 11 0 20 -4 20 -10z m-90 -300 c-20 -13 -33 -13 -25 0 3 6 14 10 23 10 15 0
15 -2 2 -10z m-210 -119 c0 -6 -4 -13 -10 -16 -5 -3 -10 1 -10 9 0 9 5 16 10
16 6 0 10 -4 10 -9z"/>
<path d="M4480 6571 c0 -16 30 -35 41 -24 6 6 1 13 -16 21 -14 6 -25 8 -25 3z"/>
<path d="M4545 6530 c-3 -6 1 -17 9 -26 15 -14 16 -14 16 5 0 23 -16 36 -25
21z"/>
<path d="M4630 6360 c0 -22 3 -40 8 -40 4 0 6 18 4 40 -2 22 -6 40 -8 40 -2 0
-4 -18 -4 -40z"/>
<path d="M4476 6306 c4 -10 16 -16 33 -15 20 1 22 2 6 6 -11 3 -26 10 -33 15
-9 8 -11 7 -6 -6z"/>
<path d="M700 7315 c-7 -17 -17 -25 -34 -25 -13 0 -27 -7 -30 -16 -5 -14 -4
-15 9 -4 9 7 18 10 22 7 9 -10 -17 -37 -37 -37 -9 0 -29 -13 -43 -30 -31 -34
-33 -42 -12 -34 8 4 15 2 15 -4 0 -5 -11 -13 -25 -16 -14 -4 -25 -13 -25 -21
0 -8 -4 -15 -10 -15 -5 0 -10 -5 -10 -11 0 -6 9 -9 20 -6 40 10 36 -30 -5 -50
-17 -8 -25 -8 -25 0 0 21 -14 -4 -17 -31 -3 -25 -2 -25 11 -9 7 10 20 15 29
11 16 -6 57 27 57 46 0 6 4 10 10 10 5 0 12 11 16 24 3 14 12 27 19 29 19 8
26 47 8 47 -13 0 -13 2 1 15 8 8 19 15 25 15 12 0 61 92 61 115 0 24 -20 18
-30 -10z m-92 -177 c-3 -7 -13 -15 -24 -17 -16 -3 -17 -1 -5 13 16 19 34 21
29 4z"/>
<path d="M4765 7330 c3 -5 8 -10 11 -10 2 0 4 5 4 10 0 6 -5 10 -11 10 -5 0
-7 -4 -4 -10z"/>
<path d="M4840 7310 c0 -5 5 -10 10 -10 6 0 10 5 10 10 0 6 -4 10 -10 10 -5 0
-10 -4 -10 -10z"/>
<path d="M4790 7261 c0 -5 5 -13 10 -16 6 -3 10 -2 10 4 0 5 -4 13 -10 16 -5
3 -10 2 -10 -4z"/>
<path d="M5315 7220 c3 -5 8 -10 11 -10 2 0 4 5 4 10 0 6 -5 10 -11 10 -5 0
-7 -4 -4 -10z"/>
<path d="M4890 7210 c0 -5 7 -10 16 -10 8 0 12 5 9 10 -3 6 -10 10 -16 10 -5
0 -9 -4 -9 -10z"/>
<path d="M5145 7200 c-8 -26 4 -48 16 -29 12 19 11 49 0 49 -5 0 -12 -9 -16
-20z"/>
<path d="M4946 7185 c-9 -14 -14 -30 -11 -35 12 -20 23 -9 27 25 2 19 3 35 2
35 -1 0 -9 -11 -18 -25z"/>
<path d="M3265 7190 c3 -5 13 -10 21 -10 8 0 14 5 14 10 0 6 -9 10 -21 10 -11
0 -17 -4 -14 -10z"/>
<path d="M4747 7174 c-9 -10 4 -34 19 -34 8 0 14 4 14 9 0 12 -26 32 -33 25z"/>
<path d="M3305 7160 c3 -5 8 -10 11 -10 2 0 4 5 4 10 0 6 -5 10 -11 10 -5 0
-7 -4 -4 -10z"/>
<path d="M5240 7140 c0 -5 5 -10 10 -10 6 0 10 5 10 10 0 6 -4 10 -10 10 -5 0
-10 -4 -10 -10z"/>
<path d="M5138 7128 c-3 -7 2 -24 9 -39 17 -35 75 -44 100 -17 15 17 14 18
-16 18 -21 0 -41 9 -57 25 -29 29 -31 29 -36 13z"/>
<path d="M4930 7114 c0 -12 58 -73 64 -67 6 6 -45 73 -56 73 -5 0 -8 -3 -8 -6z"/>
<path d="M6941 7059 c-213 -65 -298 -397 -165 -649 69 -132 169 -204 284 -204
250 0 382 357 240 649 -43 89 -112 163 -179 191 -47 19 -137 26 -180 13z m25
-96 c26 -34 13 -57 -36 -65 -49 -8 -71 5 -85 50 -5 17 -1 24 16 31 35 12 89 5
105 -16z m54 -164 c0 -19 -1 -19 -16 -5 -8 9 -12 20 -9 26 9 15 25 2 25 -21z
m-223 -291 c-3 -8 -6 -5 -6 6 -1 11 2 17 5 13 3 -3 4 -12 1 -19z m41 -51 c8
-40 135 -129 162 -112 6 4 17 2 25 -5 9 -8 19 -8 32 -1 10 6 37 15 60 21 23 6
49 17 57 25 19 20 42 19 50 -1 8 -21 -11 -44 -36 -44 -10 0 -34 -16 -54 -35
-41 -41 -56 -43 -78 -12 -14 20 -16 21 -26 5 -14 -23 -37 -23 -52 1 -6 10 -17
17 -23 15 -19 -8 -65 14 -65 31 0 8 -7 15 -16 15 -8 0 -20 14 -25 30 -6 17
-15 30 -21 30 -17 0 -40 30 -34 46 8 20 40 14 44 -9z m429 -33 c2 -7 -6 -10
-22 -6 -35 6 -44 24 -9 20 15 -2 29 -8 31 -14z"/>
<path d="M5291 7039 c-14 -5 -38 -7 -55 -3 -28 6 -29 5 -13 -10 9 -10 17 -22
17 -27 0 -17 22 -9 57 21 35 31 34 35 -6 19z"/>
<path d="M4721 7023 c-1 -12 4 -25 9 -28 12 -7 12 2 0 30 -8 19 -9 19 -9 -2z"/>
<path d="M4755 7030 c3 -5 10 -10 16 -10 5 0 9 5 9 10 0 6 -7 10 -16 10 -8 0
-12 -4 -9 -10z"/>
<path d="M4858 7024 c13 -9 21 -22 18 -30 -6 -16 10 -19 19 -4 13 21 -6 50
-33 50 l-26 0 22 -16z"/>
<path d="M5041 6996 c7 -14 23 -27 38 -31 29 -7 41 -21 41 -47 0 -11 -5 -15
-15 -12 -11 5 -13 2 -9 -10 9 -23 17 -20 38 15 16 28 17 32 2 48 -9 10 -16 25
-16 35 0 9 -4 15 -9 12 -5 -4 -12 0 -14 6 -4 10 -8 10 -15 -1 -7 -9 -12 -10
-16 -2 -4 6 -14 11 -21 11 -12 0 -12 -5 -4 -24z"/>
<path d="M473 6976 c1 -11 9 -21 17 -23 10 -3 11 -2 4 4 -6 4 -14 15 -17 23
-5 11 -6 9 -4 -4z"/>
<path d="M4750 6964 c0 -2 9 -13 19 -23 16 -16 22 -17 37 -7 14 11 14 15 3 21
-14 10 -59 16 -59 9z"/>
<path d="M5050 6950 c0 -5 5 -10 10 -10 6 0 10 5 10 10 0 6 -4 10 -10 10 -5 0
-10 -4 -10 -10z"/>
<path d="M5266 6945 c4 -8 7 -15 9 -15 2 0 5 7 9 15 3 9 0 15 -9 15 -9 0 -12
-6 -9 -15z"/>
<path d="M4673 6917 c2 -7 14 -14 26 -15 28 -4 20 13 -9 21 -14 3 -20 1 -17
-6z"/>
<path d="M3520 6810 c0 -5 5 -10 11 -10 5 0 7 5 4 10 -3 6 -8 10 -11 10 -2 0
-4 -4 -4 -10z"/>
<path d="M4865 6810 c-3 -5 -1 -10 4 -10 6 0 11 5 11 10 0 6 -2 10 -4 10 -3 0
-8 -4 -11 -10z"/>
<path d="M4321 6524 c0 -11 3 -14 6 -6 3 7 2 16 -1 19 -3 4 -6 -2 -5 -13z"/>
<path d="M4190 6440 c0 -5 5 -10 10 -10 6 0 10 5 10 10 0 6 -4 10 -10 10 -5 0
-10 -4 -10 -10z"/>
<path d="M4297 6414 c-12 -12 -8 -24 9 -24 13 0 14 -3 5 -13 -10 -13 -6 -27 9
-27 4 0 12 11 18 25 10 22 9 25 -7 25 -11 0 -21 5 -23 11 -2 5 -7 7 -11 3z"/>
<path d="M4088 6363 c-26 -7 -22 -32 15 -88 40 -62 129 -135 163 -135 23 0 25
3 19 30 -10 44 -53 119 -94 163 -34 36 -56 43 -103 30z"/>
<path d="M326 6341 c-4 -7 -5 -15 -2 -18 9 -9 19 4 14 18 -4 11 -6 11 -12 0z"/>
<path d="M5526 6305 c-3 -8 -2 -15 3 -15 5 0 14 7 21 15 10 12 10 15 -3 15 -8
0 -17 -7 -21 -15z"/>
<path d="M5585 6301 c-3 -5 -1 -12 5 -16 5 -3 10 1 10 9 0 18 -6 21 -15 7z"/>
<path d="M272 6260 c-10 -16 -10 -20 2 -20 19 0 27 13 17 28 -4 8 -11 5 -19
-8z"/>
<path d="M5576 6195 c4 -8 8 -15 10 -15 2 0 4 7 4 15 0 8 -4 15 -10 15 -5 0
-7 -7 -4 -15z"/>
<path d="M233 6021 c-6 -10 -9 -28 -6 -40 5 -21 6 -21 19 -2 9 12 11 27 6 40
-7 20 -8 20 -19 2z"/>
<path d="M201 5904 c0 -11 3 -14 6 -6 3 7 2 16 -1 19 -3 4 -6 -2 -5 -13z"/>
<path d="M5507 5780 c-3 -11 0 -20 5 -20 6 0 16 -7 22 -14 13 -17 66 -33 66
-20 -1 14 -23 38 -52 57 -34 21 -35 21 -41 -3z"/>
<path d="M171 5778 c-1 -10 -9 -18 -18 -18 -15 0 -16 -2 -3 -10 17 -10 35 12
26 33 -2 7 -5 4 -5 -5z"/>
<path d="M5510 5721 c0 -5 5 -13 10 -16 6 -3 10 -2 10 4 0 5 -4 13 -10 16 -5
3 -10 2 -10 -4z"/>
<path d="M170 5704 c0 -8 5 -12 10 -9 6 3 10 10 10 16 0 5 -4 9 -10 9 -5 0
-10 -7 -10 -16z"/>
<path d="M5854 5706 c-3 -8 -1 -23 5 -35 6 -11 11 -23 11 -28 -1 -4 -9 7 -19
26 -16 31 -19 32 -34 16 -9 -9 -17 -14 -17 -10 0 3 -11 -4 -24 -17 -31 -31
-46 -78 -46 -149 0 -97 33 -136 75 -89 10 11 28 20 39 20 17 0 18 2 6 10 -13
9 -13 11 0 20 8 5 20 10 26 10 16 0 26 30 15 44 -10 12 -8 78 3 113 4 13 2 24
-5 29 -9 5 -9 9 3 13 13 5 12 9 -8 24 -21 15 -25 16 -30 3z"/>
<path d="M5494 5675 c4 -24 13 -27 19 -5 3 13 0 20 -8 20 -7 0 -12 -7 -11 -15z"/>
<path d="M5520 5645 c0 -17 2 -18 24 -9 18 7 12 24 -10 24 -8 0 -14 -7 -14
-15z"/>
<path d="M5498 5500 c-23 -21 -22 -26 2 -50 23 -23 26 -50 6 -50 -17 0 -31
-18 -22 -27 3 -4 17 4 31 17 19 18 22 27 14 41 -5 11 -6 19 -1 19 14 0 12 58
-1 63 -7 2 -20 -3 -29 -13z"/>
<path d="M100 5500 c0 -5 5 -10 11 -10 5 0 7 5 4 10 -3 6 -8 10 -11 10 -2 0
-4 -4 -4 -10z"/>
<path d="M5556 5402 c-3 -6 -1 -14 5 -17 15 -10 25 3 12 16 -7 7 -13 7 -17 1z"/>
<path d="M5640 5340 c0 -5 7 -10 15 -10 8 0 15 5 15 10 0 6 -7 10 -15 10 -8 0
-15 -4 -15 -10z"/>
<path d="M5267 5334 c-3 -3 -3 -12 0 -20 4 -10 10 -11 25 -3 17 9 18 13 7 20
-17 10 -24 11 -32 3z"/>
<path d="M4540 5310 c0 -5 5 -10 11 -10 5 0 7 5 4 10 -3 6 -8 10 -11 10 -2 0
-4 -4 -4 -10z"/>
<path d="M5502 5272 c2 -33 -8 -52 -28 -52 -8 0 -14 -4 -14 -10 0 -5 -10 -10
-22 -11 -21 -1 -21 -2 5 -12 19 -8 30 -22 37 -47 5 -19 16 -44 24 -55 9 -11
16 -30 16 -42 0 -18 6 -23 25 -23 14 0 25 5 25 10 0 6 -4 10 -10 10 -5 0 -10
5 -10 10 0 6 11 10 24 10 22 0 38 -18 40 -45 2 -16 36 -18 36 -1 0 20 20 32
30 16 4 -7 16 -9 28 -6 17 6 19 11 13 29 -5 12 -16 21 -24 21 -9 -1 -18 9 -22
23 -4 19 -11 24 -25 20 -13 -3 -20 0 -20 10 0 12 -2 12 -16 -2 -9 -8 -14 -21
-11 -28 7 -18 -48 -10 -64 9 -9 11 -7 14 11 14 15 0 20 5 17 14 -3 8 1 20 9
26 21 19 17 33 -21 70 -19 19 -35 42 -35 52 0 10 -5 18 -10 18 -6 0 -9 -13 -8
-28z"/>
<path d="M72 5228 c-16 -16 -15 -28 3 -28 8 0 15 9 15 20 0 23 -2 24 -18 8z"/>
<path d="M5316 5212 c-9 -14 8 -29 42 -37 41 -9 43 9 2 30 -33 17 -37 18 -44
7z"/>
<path d="M6850 5195 c0 -8 2 -15 4 -15 2 0 6 7 10 15 3 8 1 15 -4 15 -6 0 -10
-7 -10 -15z"/>
<path d="M5104 5178 c-5 -7 13 -13 68 -23 47 -7 57 -22 24 -35 -50 -19 -89
-80 -52 -80 8 0 18 -9 21 -20 10 -33 40 -43 75 -25 28 14 33 14 72 -5 40 -19
68 -19 38 0 -17 11 -17 11 33 15 20 2 37 0 37 -4 0 -16 59 -18 65 -3 8 21 7
22 -20 22 -23 0 -25 3 -19 28 4 15 7 29 7 32 4 24 -15 68 -32 73 -24 6 -25 3
-10 -24 10 -19 9 -19 -27 -4 -46 19 -53 19 -28 1 16 -13 17 -14 2 -12 -10 1
-21 5 -24 9 -4 4 -18 7 -31 7 -24 0 -32 15 -10 23 6 2 9 8 4 12 -4 5 -12 4
-18 -2 -8 -8 -20 -6 -44 8 -31 19 -121 24 -131 7z m156 -48 c0 -5 -5 -10 -11
-10 -5 0 -7 5 -4 10 3 6 8 10 11 10 2 0 4 -4 4 -10z m143 -71 c-8 -8 -16 -8
-30 0 -16 9 -14 10 12 11 21 0 26 -3 18 -11z m33 -16 c-10 -10 -19 5 -10 18 6
11 8 11 12 0 2 -7 1 -15 -2 -18z"/>
<path d="M4950 5160 c0 -5 5 -10 11 -10 5 0 7 5 4 10 -3 6 -8 10 -11 10 -2 0
-4 -4 -4 -10z"/>
<path d="M40 5030 c0 -5 5 -10 10 -10 6 0 10 5 10 10 0 6 -4 10 -10 10 -5 0
-10 -4 -10 -10z"/>
<path d="M4945 5031 c-3 -5 -1 -12 5 -16 5 -3 10 1 10 9 0 18 -6 21 -15 7z"/>
<path d="M5012 5008 c6 -18 28 -21 28 -4 0 9 -7 16 -16 16 -9 0 -14 -5 -12
-12z"/>
<path d="M5090 4992 c0 -5 7 -13 16 -16 10 -4 14 -1 12 6 -5 15 -28 23 -28 10z"/>
<path d="M618 4903 c-46 -56 -63 -133 -38 -173 11 -18 11 -17 42 50 15 35 35
60 52 70 26 14 29 13 46 -8 l18 -22 12 35 c18 55 9 65 -58 65 -44 0 -63 -4
-74 -17z"/>
<path d="M50 4869 c0 -5 5 -7 10 -4 6 3 10 8 10 11 0 2 -4 4 -10 4 -5 0 -10
-5 -10 -11z"/>
<path d="M5520 4714 c-19 -2 -114 -8 -210 -15 -274 -17 -856 -72 -960 -89 -30
-5 -100 -14 -155 -20 -55 -6 -134 -17 -175 -25 -41 -8 -115 -21 -165 -29 -190
-31 -331 -58 -350 -67 -11 -5 -54 -16 -95 -24 -88 -17 -351 -85 -465 -121 -44
-14 -114 -32 -155 -40 -41 -8 -104 -23 -140 -33 -59 -17 -148 -35 -225 -46
-16 -2 -79 -13 -140 -23 -297 -53 -639 -27 -885 67 -30 11 -55 19 -57 17 -7
-7 116 -56 202 -81 195 -56 358 -72 570 -55 267 20 388 45 1085 223 528 135
863 199 1230 236 58 6 186 20 285 30 521 58 897 84 1123 79 165 -3 212 4 101
16 -60 6 -349 6 -419 0z"/>
<path d="M6010 4696 c0 -2 11 -6 25 -8 13 -3 22 -1 19 3 -5 9 -44 13 -44 5z"/>
<path d="M5880 4540 c0 -5 5 -10 11 -10 5 0 7 5 4 10 -3 6 -8 10 -11 10 -2 0
-4 -4 -4 -10z"/>
<path d="M6790 4440 c-13 -8 -13 -10 2 -10 9 0 20 5 23 10 8 13 -5 13 -25 0z"/>
<path d="M6410 4380 c0 -5 7 -10 16 -10 8 0 12 5 9 10 -3 6 -10 10 -16 10 -5
0 -9 -4 -9 -10z"/>
<path d="M6461 4361 c-21 -6 -22 -8 -7 -20 9 -7 16 -10 16 -5 0 5 5 2 10 -6 8
-12 10 -9 10 13 0 15 -1 27 -2 26 -2 -1 -14 -4 -27 -8z"/>
<path d="M6780 4200 c0 -5 5 -10 11 -10 5 0 7 5 4 10 -3 6 -8 10 -11 10 -2 0
-4 -4 -4 -10z"/>
<path d="M6840 4200 c0 -5 7 -10 15 -10 8 0 15 5 15 10 0 6 -7 10 -15 10 -8 0
-15 -4 -15 -10z"/>
<path d="M6880 4139 c0 -5 5 -7 10 -4 6 3 10 8 10 11 0 2 -4 4 -10 4 -5 0 -10
-5 -10 -11z"/>
<path d="M6860 4069 c0 -5 5 -7 10 -4 6 3 10 8 10 11 0 2 -4 4 -10 4 -5 0 -10
-5 -10 -11z"/>
<path d="M6865 4010 c-3 -5 -2 -17 3 -26 7 -12 10 -13 19 -2 8 9 7 16 -2 25
-9 8 -16 9 -20 3z"/>
<path d="M80 3290 c0 -5 5 -10 11 -10 5 0 7 5 4 10 -3 6 -8 10 -11 10 -2 0 -4
-4 -4 -10z"/>
<path d="M4671 1968 c-13 -62 -34 -167 -47 -233 -12 -66 -34 -174 -49 -240
-88 -401 -150 -753 -211 -1200 -19 -143 -37 -268 -40 -277 -5 -17 22 -18 460
-18 397 0 466 2 466 14 0 8 -7 22 -16 30 -8 9 -13 20 -10 25 3 5 -1 14 -9 21
-8 7 -15 19 -15 27 0 8 -7 21 -15 29 -8 9 -15 28 -15 43 0 15 -9 37 -20 49
-11 12 -20 29 -20 39 0 10 -6 27 -14 38 -7 11 -22 47 -32 80 -10 33 -21 65
-26 71 -28 39 -57 108 -63 155 -4 30 -11 59 -16 65 -6 7 -12 22 -14 34 -6 30
-28 80 -36 80 -4 0 -7 10 -7 23 -1 48 -18 102 -32 99 -11 -3 -11 0 -1 12 11
13 11 20 -1 38 -8 13 -21 55 -27 93 -7 39 -17 88 -22 110 -21 88 -48 258 -43
266 16 26 -39 344 -58 333 -4 -3 -8 14 -9 38 -2 105 -9 176 -20 213 -6 22 -12
44 -13 48 -1 4 -12 -43 -25 -105z"/>
<path d="M4480 2010 c0 -5 5 -10 10 -10 6 0 10 5 10 10 0 6 -4 10 -10 10 -5 0
-10 -4 -10 -10z"/>
<path d="M4191 1264 c0 -11 3 -14 6 -6 3 7 2 16 -1 19 -3 4 -6 -2 -5 -13z"/>
<path d="M4137 1113 c-13 -12 -8 -73 6 -73 9 0 11 12 9 40 -4 42 -5 44 -15 33z"/>
<path d="M4150 864 c0 -8 5 -12 10 -9 6 3 10 10 10 16 0 5 -4 9 -10 9 -5 0
-10 -7 -10 -16z"/>
<path d="M3617 23 c-12 -11 -8 -23 8 -23 8 0 15 7 15 15 0 16 -12 20 -23 8z"/>
</g>
</svg>
